<?xml version="1.0" encoding="utf-8"?>
<!-- Generator: Adobe Illustrator 24.3.0, SVG Export Plug-In . SVG Version: 6.00 Build 0)  -->
<svg version="1.1" id="Ebene_1" xmlns="http://www.w3.org/2000/svg" xmlns:xlink="http://www.w3.org/1999/xlink" x="0px" y="0px"
	 viewBox="0 0 175.43 30.11" style="enable-background:new 0 0 175.43 30.11;" xml:space="preserve">
<style type="text/css">
	.st0{fill:#D9981E;}
	.st1{fill:none;stroke:#D9981E;stroke-miterlimit:10;}
</style>
<polygon class="st0" points="20.16,10.24 29.49,12.11 22.79,18.88 23.89,28.33 15.39,24.05 6.74,28.01 8.19,18.61 1.74,11.61 
	11.13,10.07 15.8,1.78 "/>
<polygon class="st0" points="56.14,10.24 65.47,12.11 58.78,18.88 59.88,28.33 51.38,24.05 42.73,28.01 44.17,18.61 37.73,11.61 
	47.12,10.07 51.78,1.78 "/>
<polygon class="st0" points="92.13,10.53 101.46,12.41 94.76,19.17 95.86,28.62 87.36,24.34 78.71,28.31 80.16,18.9 73.71,11.9 
	83.1,10.37 87.77,2.08 "/>
<polygon class="st0" points="128.12,10.53 137.44,12.41 130.75,19.17 131.85,28.62 123.35,24.34 114.7,28.31 116.15,18.9 
	109.7,11.9 119.09,10.37 123.76,2.08 "/>
<polygon class="st1" points="164.1,10.53 173.43,12.41 166.73,19.17 167.83,28.62 159.34,24.34 150.69,28.31 152.13,18.9 
	145.69,11.9 155.08,10.37 159.74,2.08 "/>
</svg>
