<?xml version="1.0" encoding="utf-8"?>
<!-- Generator: Adobe Illustrator 24.3.0, SVG Export Plug-In . SVG Version: 6.00 Build 0)  -->
<svg version="1.1" id="Ebene_1" xmlns="http://www.w3.org/2000/svg" xmlns:xlink="http://www.w3.org/1999/xlink" x="0px" y="0px"
	 viewBox="0 0 175.43 30.11" style="enable-background:new 0 0 175.43 30.11;" xml:space="preserve">
<style type="text/css">
	.st0{fill:#FF8000;}
	.st1{fill:none;stroke:#FF8000;stroke-miterlimit:10;}
</style>
<polygon class="st0" points="20.16,8.46 29.49,10.33 22.79,17.09 23.89,26.54 15.39,22.26 6.74,26.23 8.19,16.83 1.74,9.83 
	11.13,8.29 15.8,0 "/>
<polygon class="st0" points="56.14,8.46 65.47,10.33 58.78,17.09 59.88,26.54 51.38,22.26 42.73,26.23 44.17,16.83 37.73,9.83 
	47.12,8.29 51.78,0 "/>
<polygon class="st0" points="92.13,10.53 101.46,12.41 94.76,19.17 95.86,28.62 87.36,24.34 78.71,28.31 80.16,18.9 73.71,11.9 
	83.1,10.37 87.77,2.08 "/>
<polygon class="st0" points="128.12,10.53 137.44,12.41 130.75,19.17 131.85,28.62 123.35,24.34 114.7,28.31 116.15,18.9 
	109.7,11.9 119.09,10.37 123.76,2.08 "/>
<polygon class="st1" points="164.1,10.53 173.43,12.41 166.73,19.17 167.83,28.62 159.34,24.34 150.69,28.31 152.13,18.9 
	145.69,11.9 155.08,10.37 159.74,2.08 "/>
</svg>
