<?xml version="1.0" encoding="iso-8859-1"?>
<!-- Generator: Adobe Illustrator 18.1.1, SVG Export Plug-In . SVG Version: 6.00 Build 0)  -->
<svg version="1.1" id="Capa_1" xmlns="http://www.w3.org/2000/svg" xmlns:xlink="http://www.w3.org/1999/xlink" x="0px" y="0px"
	 viewBox="0 0 611.997 611.997" style="enable-background:new 0 0 611.997 611.997;" xml:space="preserve">
<g>
	<path d="M596.003,276.944H464.81l-67.861-159.866c14.366-9.311,23.913-25.452,23.913-43.808c0-28.783-23.417-52.197-52.2-52.197
		s-52.197,23.414-52.197,52.197c0,27.778,21.827,50.494,49.221,52.053l64.361,151.624H181.949l64.387-151.688
		c26.837-2.134,48.034-24.614,48.034-51.992c0-28.783-23.417-52.197-52.197-52.197s-52.197,23.414-52.197,52.197
		c0,18.743,9.963,35.162,24.838,44.371L147.19,276.944H15.997C7.164,276.944,0,284.104,0,292.941v49.765
		c0,8.837,7.164,15.997,15.997,15.997h13.156l23.302,190.309c2.928,23.894,23.286,41.913,47.356,41.913h412.374
		c24.073,0,44.431-18.02,47.356-41.913l23.302-190.309h13.156c8.834,0,15.997-7.16,15.997-15.997v-49.765
		C612,284.104,604.84,276.944,596.003,276.944z M348.464,73.27c0-11.137,9.064-20.202,20.202-20.202
		c11.137,0,20.205,9.064,20.205,20.202c0,11.141-9.064,20.205-20.205,20.205S348.464,84.411,348.464,73.27z M242.17,53.065
		c11.141,0,20.202,9.064,20.202,20.202c0,11.141-9.064,20.205-20.202,20.205c-11.137,0-20.202-9.064-20.202-20.205
		C221.968,62.129,231.029,53.065,242.17,53.065z"/>
</g>
<g>
</g>
<g>
</g>
<g>
</g>
<g>
</g>
<g>
</g>
<g>
</g>
<g>
</g>
<g>
</g>
<g>
</g>
<g>
</g>
<g>
</g>
<g>
</g>
<g>
</g>
<g>
</g>
<g>
</g>
</svg>
